<?xml version="1.0" encoding="UTF-8"?>
<svg id="Layer_2" xmlns="http://www.w3.org/2000/svg" xmlns:xlink="http://www.w3.org/1999/xlink" viewBox="0 0 109 152">
  <defs>
    <style>
      .cls-1 {
        fill: none;
      }

      .cls-2 {
        opacity: .2;
      }

      .cls-2, .cls-3, .cls-4, .cls-5, .cls-6 {
        fill-rule: evenodd;
      }

      .cls-7, .cls-4 {
        fill: #d9d9d9;
      }

      .cls-8 {
        fill: #1e1e1e;
      }

      .cls-3 {
        fill: #ce9984;
      }

      .cls-5 {
        fill: #1d1d28;
      }

      .cls-9 {
        fill: #493126;
      }

      .cls-10 {
        fill: #ba5943;
      }

      .cls-11 {
        fill: #c2c2c2;
      }

      .cls-6 {
        fill: #382c23;
      }

      .cls-12 {
        clip-path: url(#clippath);
      }
    </style>
    <clipPath id="clippath">
      <rect class="cls-1" width="109" height="152"/>
    </clipPath>
  </defs>
  <g id="Layer_1-2" data-name="Layer_1">
    <g class="cls-12">
      <path class="cls-6" d="M99.33,49.66H9.93v39.73H0v9.93h109.26v-9.93h-9.93v-39.73Z"/>
      <path class="cls-3" d="M29.8,19.87h49.66v9.93h9.93v29.8h-9.93v6.62h-16.55v13.24h-23.18v-13.24h-9.93v-6.62h-9.93v-29.8h9.93v-9.93Z"/>
      <rect class="cls-8" x="43.04" y="36.42" width="6.62" height="9.93"/>
      <rect class="cls-8" x="69.53" y="36.42" width="6.62" height="9.93"/>
      <rect class="cls-10" x="36.42" y="46.35" width="9.93" height="6.62"/>
      <rect class="cls-10" x="76.15" y="46.35" width="9.93" height="6.62"/>
      <path class="cls-6" d="M29.85,0h49.63v9.93h9.93s0,9.93,0,9.93h9.93v19.87h0v29.8h-19.85v-26.49s0-23.18,0-23.18v9.93h-9.93v-9.93h-29.78v9.93h-9.93v13.24h-9.93V9.93h9.93s0-9.93,0-9.93ZM10,19.87h9.93v29.8h-9.93v-29.8Z"/>
      <path class="cls-4" d="M29.8,76.15h-9.93v16.55h9.93v-16.55ZM29.8,76.15h59.6v16.55h-9.93v16.55H29.8v-33.11Z"/>
      <path class="cls-3" d="M29.8,92.71h-6.62v26.49h-3.31v6.62h9.93v-33.11Z"/>
      <path class="cls-3" d="M86.08,92.71h-6.62v26.49h6.62v-26.49ZM89.4,125.82v-6.62h-9.93v6.62h9.93Z"/>
      <path class="cls-5" d="M52.97,109.26h-23.18v33.11h23.18v-33.11ZM79.46,109.26h-23.18v33.11h23.18v-33.11Z"/>
      <rect class="cls-9" x="23.18" y="142.37" width="29.8" height="9.93"/>
      <rect class="cls-9" x="56.29" y="142.37" width="29.8" height="9.93"/>
      <path class="cls-2" d="M40.5,0h-10.5v10h-10v9.87h-.07v.13h-9.93v69H0v10h23.18v20.19h-3.31v6.62h9.13v16.18h-6v10h17v-63h7v-23h-15v-13h3V10h5.5V0Z"/>
      <rect class="cls-9" x="29.8" y="106" width="49.66" height="3.26"/>
      <rect class="cls-11" x="49.66" y="106" width="13.24" height="3.26"/>
      <rect class="cls-11" x="26.49" y="66.22" width="3.31" height="3.31"/>
      <rect class="cls-7" x="26.49" y="59.6" width="3.31" height="6.62"/>
      <rect class="cls-11" x="79.46" y="59.6" width="3.31" height="6.62"/>
    </g>
  </g>
</svg>