<?xml version="1.0" encoding="UTF-8"?>
<svg id="Layer_2" xmlns="http://www.w3.org/2000/svg" viewBox="0 0 4.33 6.26">
  <defs>
    <style>
      .cls-1 {
        fill: #110623;
        fill-rule: evenodd;
      }
    </style>
  </defs>
  <g id="Layer_1-2" data-name="Layer_1">
    <path class="cls-1" d="M2.41,3.13c0-.4.32-.72.72-.72s.72.32.72.72-.32.72-.72.72-.72-.32-.72-.72h0ZM.49,5.06c0-.4.32-.72.72-.72h0s.72,0,.72,0v.72c0,.4-.32.72-.72.72s-.72-.32-.72-.72M1.2,3.85h.72s0-.72,0-.72h0s0,0,0,0v-.72s-.72,0-.72,0c-.4,0-.72.32-.72.72s.32.72.71.72h0ZM2.41.49v1.44s.72,0,.72,0c.4,0,.72-.32.72-.72s-.32-.72-.72-.72h-.72ZM1.92,0h.49s.72,0,.72,0c.67,0,1.2.54,1.2,1.21,0,.39-.19.74-.48.96.29.22.48.57.48.96,0,.67-.54,1.21-1.2,1.21-.27,0-.52-.09-.72-.24v.24s0,.72,0,.72c0,.67-.54,1.21-1.2,1.21S0,5.72,0,5.06c0-.39.19-.74.48-.96C.19,3.87,0,3.53,0,3.13s.19-.74.48-.96C.19,1.95,0,1.6,0,1.21,0,.54.54,0,1.2,0h.72ZM1.92.49h-.72c-.4,0-.72.32-.72.72s.32.72.72.72h.72s0-1.44,0-1.44Z"/>
  </g>
</svg>