<?xml version="1.0" encoding="UTF-8"?>
<svg id="Layer_2" xmlns="http://www.w3.org/2000/svg" viewBox="0 0 8.8 8.67">
  <defs>
    <style>
      .cls-1 {
        fill: #110623;
      }
    </style>
  </defs>
  <g id="Layer_1-2" data-name="Layer_1">
    <path class="cls-1" d="M4.19,0C1.94.11.09,1.97,0,4.22s1.38,3.97,3.37,4.45l-.03-1.11h-.81c-.09,0-.17-.02-.25-.05-.16-.07-.43-.24-.54-.54,0,0-.14-.47-.58-.7l-.04-.14h.32c.07,0,.13.01.19.05.11.06.27.17.34.35.09.2.3.36.41.44.05.03.1.05.16.05h.8v-.18c0-.22.11-.41.29-.55-.59-.04-1.12-.15-1.49-.45-.44-.36-.62-1.05-.62-1.56,0-.45.12-.87.42-1.22-.03-.36-.06-1.12.14-1.19,0,0,.59-.15,1.16.42,0,0,.56-.16,1.13-.16s1.13.16,1.13.16c.57-.57,1.16-.42,1.16-.42.21.07.16.91.14,1.24.26.33.38.74.38,1.17,0,.51-.18,1.2-.61,1.56-.36.3-.89.41-1.47.45.18.14.3.34.3.56l.03,1.85c1.94-.46,3.38-2.2,3.38-4.27C8.8,1.9,6.71-.11,4.19,0Z"/>
  </g>
</svg>