<?xml version="1.0" encoding="UTF-8"?>
<svg id="Layer_2" xmlns="http://www.w3.org/2000/svg" viewBox="0 0 8.67 8.67">
  <defs>
    <style>
      .cls-1 {
        fill: #110623;
      }
    </style>
  </defs>
  <g id="Layer_1-2" data-name="Layer_1">
    <g>
      <path class="cls-1" d="M1.5.41C.9.41.41.9.41,1.5v5.68c0,.6.49,1.08,1.08,1.08h5.68c.6,0,1.08-.49,1.08-1.08V1.5c0-.6-.49-1.08-1.08-1.08H1.5ZM7.18,8.67H1.5c-.83,0-1.5-.67-1.5-1.5V1.5C0,.67.67,0,1.5,0h5.68c.83,0,1.5.67,1.5,1.5v5.68c0,.83-.67,1.5-1.5,1.5"/>
      <path class="cls-1" d="M3.16,4.65h.92c-.02-.07-.1-.24-.13-.33-.03-.09-.07-.16-.1-.27-.03-.1-.07-.21-.1-.31-.03-.1-.06-.2-.09-.3-.03-.1-.05-.18-.07-.26h0c-.03.15-.07.29-.11.44-.05.16-.1.33-.16.5-.05.17-.11.39-.16.54ZM4.23,5.23h-1.26l-.26.84s-.03.05-.07.05h-.64s-.05-.02-.04-.06l1.09-3.14s.02-.07.03-.11c.02-.06.02-.12.02-.19,0-.02.01-.04.03-.04,0,0,0,0,0,0h.87s.04,0,.04.03l1.24,3.46s0,.05-.03.05h-.71s-.05-.01-.05-.04l-.28-.85Z"/>
      <path class="cls-1" d="M5.69,6.07v-2.49s.01-.05.04-.05h.62s.04.02.04.05v2.49s-.01.05-.04.05h-.61s-.05-.02-.05-.05M6.05,3.16c-.11,0-.22-.04-.3-.12-.08-.08-.12-.2-.11-.31,0-.11.04-.22.12-.3.08-.08.19-.12.3-.12.11,0,.23.04.31.12.08.08.12.19.11.3,0,.12-.04.23-.12.31-.08.08-.2.13-.31.12"/>
    </g>
  </g>
</svg>