<?xml version="1.0" encoding="UTF-8"?>
<svg id="Layer_2" xmlns="http://www.w3.org/2000/svg" viewBox="0 0 8.67 8.67">
  <defs>
    <style>
      .cls-1 {
        fill: #110623;
      }
    </style>
  </defs>
  <g id="Layer_1-2" data-name="Layer_1">
    <g>
      <path class="cls-1" d="M1.5.41C.9.41.41.9.41,1.5v5.68c0,.6.49,1.08,1.08,1.08h5.68c.6,0,1.08-.49,1.08-1.08V1.5c0-.6-.49-1.08-1.08-1.08H1.5ZM7.18,8.67H1.5c-.83,0-1.5-.67-1.5-1.5V1.5C0,.67.67,0,1.5,0h5.68c.83,0,1.5.67,1.5,1.5v5.68c0,.83-.67,1.5-1.5,1.5"/>
      <path class="cls-1" d="M3.14,2.65v3.42s-.02.05-.05.05h-.62s-.04-.02-.04-.05v-3.42s.02-.04.05-.04h.62s.04.01.04.03c0,0,0,0,0,.01Z"/>
      <path class="cls-1" d="M5.53,5.52v-1.49s-.08-.01-.12-.02c-.04,0-.07,0-.11,0-.13,0-.26.03-.38.09-.26.12-.42.39-.4.68,0,.12.02.24.06.35.03.09.09.17.15.24.06.06.14.11.23.14.09.03.19.04.28.04.05,0,.1,0,.14,0,.05,0,.1-.01.15-.02ZM5.17,6.2c-.25,0-.5-.05-.73-.15-.21-.1-.39-.26-.51-.46-.13-.24-.2-.5-.19-.77,0-.25.06-.5.19-.72.13-.22.31-.4.54-.52.26-.14.56-.21.86-.2.02,0,.04,0,.07,0,.03,0,.09,0,.13,0v-1.03s.01-.04.03-.04h.63s.03,0,.03.02c0,0,0,0,0,0v3.18c0,.06,0,.13,0,.2,0,.07,0,.14.01.2,0,.02-.01.04-.03.05-.17.07-.34.13-.53.16-.17.03-.35.05-.52.05"/>
    </g>
  </g>
</svg>