<?xml version="1.0" encoding="UTF-8"?>
<svg id="Layer_2" xmlns="http://www.w3.org/2000/svg" viewBox="0 0 8.32 8.68">
  <defs>
    <style>
      .cls-1 {
        fill: #110623;
      }
    </style>
  </defs>
  <g id="Layer_1-2" data-name="Layer_1">
    <path class="cls-1" d="M1.44,1.52c.27.22.37.2.88.17l4.78-.29c.1,0,.02-.1-.02-.12l-.79-.57c-.15-.12-.35-.25-.74-.22L.91.83c-.17.02-.2.1-.14.17l.66.52ZM1.72,2.63v5.03c0,.27.14.37.44.35l5.25-.3c.3-.02.34-.2.34-.42V2.3c0-.22-.08-.34-.27-.32l-5.49.32c-.2.02-.27.12-.27.34ZM6.91,2.9c.03.15,0,.3-.15.32l-.25.05v3.71c-.22.12-.42.19-.59.19-.27,0-.34-.08-.54-.34l-1.65-2.6v2.51l.52.12s0,.3-.42.3l-1.16.07c-.03-.07,0-.24.12-.27l.3-.08v-3.32l-.42-.03c-.03-.15.05-.37.29-.39l1.25-.08,1.72,2.63v-2.33l-.44-.05c-.03-.19.1-.32.27-.34l1.17-.07ZM.52.37L5.34.02c.59-.05.74-.02,1.11.25l1.54,1.08c.25.19.34.24.34.44v5.92c0,.37-.14.59-.61.62l-5.59.34c-.35.02-.52-.03-.71-.27l-1.13-1.47c-.2-.27-.29-.47-.29-.71V.96C0,.66.14.41.52.37Z"/>
  </g>
</svg>