<?xml version="1.0" encoding="UTF-8"?>
<svg id="Layer_2" xmlns="http://www.w3.org/2000/svg" viewBox="0 0 8.67 8.67">
  <defs>
    <style>
      .cls-1 {
        fill: #110623;
      }
    </style>
  </defs>
  <g id="Layer_1-2" data-name="Layer_1">
    <g>
      <path class="cls-1" d="M1.5.41C.9.41.41.9.41,1.5v5.68c0,.6.49,1.08,1.08,1.08h5.68c.6,0,1.08-.49,1.08-1.08V1.5c0-.6-.49-1.08-1.08-1.08H1.5ZM7.18,8.67H1.5c-.83,0-1.5-.67-1.5-1.5V1.5C0,.67.67,0,1.5,0h5.68c.83,0,1.5.67,1.5,1.5v5.68c0,.83-.67,1.5-1.5,1.5"/>
      <path class="cls-1" d="M2.8,3.21v1.13s.09,0,.13,0h.18c.13,0,.26-.02.39-.05.11-.03.2-.09.28-.18.08-.1.11-.22.11-.35,0-.11-.02-.21-.08-.3-.06-.09-.14-.15-.24-.19-.13-.05-.26-.07-.4-.07-.09,0-.16,0-.23,0-.07,0-.11,0-.14,0M2.05,6.08v-3.49s.01-.04.03-.04c.06,0,.13,0,.21,0,.08,0,.17,0,.26,0,.09,0,.19,0,.29,0,.1,0,.21,0,.31,0,.24,0,.47.03.7.1.17.06.33.15.46.28.11.11.19.24.25.38.05.14.08.29.08.44.01.26-.06.51-.2.72-.14.19-.33.33-.55.41-.24.09-.5.13-.76.13-.08,0-.14,0-.17,0-.03,0-.08,0-.15,0v1.07s-.01.05-.04.05c0,0,0,0-.01,0h-.67s-.04-.01-.04-.04"/>
      <path class="cls-1" d="M6.76,4.12c-.13-.05-.26-.09-.39-.11-.12-.03-.25-.04-.38-.04-.07,0-.14,0-.2.02-.04,0-.08.03-.11.07-.02.03-.03.06-.03.09,0,.03.01.06.03.09.03.04.07.07.11.09.08.04.16.08.24.11.18.06.36.14.52.25.11.07.2.17.27.28.05.11.08.23.08.35,0,.16-.04.32-.13.45-.09.14-.23.24-.38.3-.19.08-.4.12-.61.11-.15,0-.31-.01-.46-.04-.13-.02-.25-.06-.37-.11-.02-.01-.04-.04-.04-.07v-.59s0-.02.01-.03c0,0,.02,0,.03,0,.14.08.29.13.44.17.13.03.26.05.4.05.1,0,.19-.01.28-.05.06-.03.09-.08.09-.14,0-.06-.03-.11-.08-.14-.1-.07-.22-.12-.33-.16-.17-.06-.33-.14-.48-.25-.11-.07-.19-.17-.26-.29-.05-.11-.08-.23-.08-.35,0-.14.04-.29.11-.41.09-.14.21-.24.36-.31.17-.09.36-.14.55-.14.15,0,.31,0,.46,0,.12.03.25.07.36.12.01,0,.03.02.03.03,0,.01,0,.03,0,.04v.55s0,.03-.02.03c-.01,0-.03,0-.04,0Z"/>
    </g>
  </g>
</svg>