<?xml version="1.0" encoding="UTF-8"?>
<svg id="Layer_2" xmlns="http://www.w3.org/2000/svg" viewBox="0 0 8.67 8.67">
  <defs>
    <style>
      .cls-1 {
        fill: #110623;
      }
    </style>
  </defs>
  <g id="Layer_1-2" data-name="Layer_1">
    <g>
      <path class="cls-1" d="M1.5.41C.9.41.41.9.41,1.5v5.68c0,.6.49,1.08,1.08,1.08h5.68c.6,0,1.08-.49,1.08-1.08V1.5c0-.6-.49-1.08-1.08-1.08H1.5ZM7.18,8.67H1.5c-.83,0-1.5-.67-1.5-1.5V1.5C0,.67.67,0,1.5,0h5.68c.83,0,1.5.67,1.5,1.5v5.68c0,.83-.67,1.5-1.5,1.5"/>
      <path class="cls-1" d="M2.86,3.18v1.14s.18.03.22.03h.18c.13,0,.26-.02.38-.06.11-.03.21-.09.28-.18.08-.1.12-.23.1-.35,0-.1-.03-.2-.07-.29-.06-.09-.14-.15-.24-.19-.13-.05-.26-.07-.4-.07h-.24c-.07,0-.15,0-.22-.01M2.15,6.05v-3.48s.01-.04.03-.04h.77c.1,0,.24.03.34.03.24,0,.47.03.69.1.17.06.33.15.46.28.11.11.19.24.25.38.05.14.07.29.07.44.01.26-.06.51-.21.72-.13.19-.32.34-.55.41-.25.09-.51.13-.77.13h-.16s-.16-.03-.24-.03v1.08s-.01.04-.03.04c0,0,0,0-.01,0h-.62s-.03-.04-.03-.07"/>
      <path class="cls-1" d="M5.24,3.41h.59s.06.03.07.06c.01.03.03.04.03.07.01.03.02.07.01.1v.12c.1-.12.23-.22.37-.29.14-.09.31-.13.47-.12.03,0,.04.01.04.03v.68s-.01.04-.06.04c-.11-.01-.22,0-.32.03-.1.01-.19.04-.28.09-.08.03-.16.07-.22.13v1.73s-.01.04-.03.04c0,0,0,0-.01,0h-.62s-.04-.01-.06-.04v-2.14c0-.09,0-.18-.01-.27,0-.07-.01-.15-.01-.22t.01-.03s.01-.01.03-.01"/>
    </g>
  </g>
</svg>